<svg id="Layer_1" data-name="Layer 1" xmlns="http://www.w3.org/2000/svg" viewBox="0 0 197.74933 197.74431"><title>ERA_icons_artboarded</title><path d="M81.82937,153.52771a7.50367,7.50367,0,0,0,7.62093,7.36268h1.38081a8.94385,8.94385,0,0,0,17.70241,0h1.381a7.50364,7.50364,0,0,0,7.62075-7.36268V140.05466H81.82937Zm17.8531,12.45977a6.39331,6.39331,0,0,1-6.2521-5.09709H105.9343A6.39312,6.39312,0,0,1,99.68248,165.98748Zm10.23206-7.65987H89.4503a5.02818,5.02818,0,0,1-4.8698-3.51942h30.20367A5.02816,5.02816,0,0,1,109.91454,158.32761ZM84.39215,142.61744H114.9725v3.51976H84.39215Zm0,6.08254H114.9725v3.54543H84.39215Z" style="fill:#004d6c"/><path d="M89.15321,97.66656a1.54118,1.54118,0,0,0-.62646-2.08286,7.35687,7.35687,0,0,0-9.98212,3.03822,7.40872,7.40872,0,0,0-.7033,1.987l-.09959.48321-.4783-.12173a5.89371,5.89371,0,0,0-4.40918.61846,1.53583,1.53583,0,1,0,1.53264,2.662,2.86941,2.86941,0,0,1,2.78924-.043,2.91707,2.91707,0,0,1,1.18406,3.93457,2.85006,2.85006,0,0,1-1.7558,1.42136,1.53827,1.53827,0,0,0,.849,2.95707,5.9449,5.9449,0,0,0,3.97023-7.70684l-.02459-.11927a1.52139,1.52139,0,0,0-.1666-.589,4.36021,4.36021,0,0,1,.02644-4.03908A4.27049,4.27049,0,0,1,83.809,97.96534a4.22212,4.22212,0,0,1,3.262.32706A1.53966,1.53966,0,0,0,89.15321,97.66656Z" style="fill:#004d6c"/><path d="M82.42325,134.79413c7.75356,0,14.06178-5.399,14.06178-12.03609v-5.02887a6.93834,6.93834,0,0,0-.94184-3.48947l-.32768-.56314a3.78064,3.78064,0,0,1,.11558-3.969,6.90447,6.90447,0,0,0,1.15394-3.83129V85.3821a7.05864,7.05864,0,0,0-2.065-5.0092l-.281-.2828a2.91336,2.91336,0,0,1-.3412-3.685l1.11275-1.6353A9.07611,9.07611,0,0,0,96.485,69.64874V53.33258c0-6.6359-6.30822-12.03486-14.06178-12.03486s-14.06116,5.399-14.06116,12.03486c0,.15738.00492.316.01291.47584l.016.31231-.28034.13648c-5.88771,2.87469-9.54563,8.238-9.54563,13.996a13.44033,13.44033,0,0,0,.19365,2.24762l.05287.31108-.268.16845A20.30973,20.30973,0,0,0,56.16493,72.73a19.59687,19.59687,0,0,0,.26558,29.6273l.09037.09836a1.54126,1.54126,0,0,0,.33382.36395c.359.2705.7322.51887,1.11152.75249l.30247.18812-.09652.34182a13.77269,13.77269,0,0,0-.52748,3.73538c0,6.14407,3.99666,11.66845,10.43091,14.4165l.28649.12173v.31231C68.36209,129.39516,74.66969,134.79413,82.42325,134.79413ZM60.71919,107.83742a10.58491,10.58491,0,0,1,.27726-2.3509l.11-.4783.474.12787a13.83167,13.83167,0,0,0,3.62964.48813,1.53694,1.53694,0,1,0,0-3.07388,10.63226,10.63226,0,0,1-4.69812-1.10045,16.42232,16.42232,0,0,1-2.31709-26.38743,14.427,14.427,0,0,1,12.37053-2.59559l.49305.118-.15308.48321a7.12816,7.12816,0,0,0,2.18676,7.61954l.09283.107a3.8698,3.8698,0,0,1,.95352,2.68042A4.10033,4.10033,0,0,1,72.34215,86.876a1.53609,1.53609,0,0,0-.40821,2.1345,1.57746,1.57746,0,0,0,2.1345.40821A7.17047,7.17047,0,0,0,77.213,83.4726a6.999,6.999,0,0,0-1.78285-4.78542L75.32074,78.59c-.09713-.10082-.13033-.13771-.16968-.17091a4.10684,4.10684,0,0,1,2.07733-7.25682,4.00934,4.00934,0,0,1,3.04376.884,1.548,1.548,0,0,0,1.12811.33813,1.52513,1.52513,0,0,0,1.03344-.55822,1.54071,1.54071,0,0,0-.21948-2.16524,7.11257,7.11257,0,0,0-9.127.107l-.201.17214-.25144-.08238a17.63559,17.63559,0,0,0-10.327-.23484l-.54469.15492L61.693,69.0561c-.02705-.26927-.05349-.53854-.05349-.8029,0-4.17064,2.49046-8.13349,6.66233-10.6012l.51088-.30124.17951.56559a12.30864,12.30864,0,0,0,2.63186,4.43623,1.58118,1.58118,0,0,0,2.17139.123,1.54063,1.54063,0,0,0,.12234-2.17016A7.80351,7.80351,0,0,1,71.621,55.065a1.53226,1.53226,0,0,0-.02951-.28772,7.60136,7.60136,0,0,1-.15554-1.44472c0-4.94157,4.92866-8.961,10.98728-8.961s10.98728,4.01941,10.98728,8.961V69.64874a6.00766,6.00766,0,0,1-1.04266,3.39234l-1.11213,1.63408a5.98286,5.98286,0,0,0-.99163,2.75912l-.051.50412-.4992-.0873a8.1044,8.1044,0,0,0-2.97367.0332,1.53728,1.53728,0,0,0-1.20189,1.81236,1.5456,1.5456,0,0,0,1.81175,1.2025,5.163,5.163,0,0,1,4.652,1.41522l.2373.225a4.06515,4.06515,0,0,1,1.17115,2.84273v20.49418a3.841,3.841,0,0,1-.6406,2.13081,3.37351,3.37351,0,0,0-.16906.29509l-.18566.28526a.82017.82017,0,0,0-.08791.10082,6.69727,6.69727,0,0,1-3.01425,2.38041,1.53726,1.53726,0,0,0-.86622,1.9931,1.55975,1.55975,0,0,0,1.9931.86438,7.614,7.614,0,0,0,.70761-.3369l.64244-.32952.16476.53977a6.74242,6.74242,0,0,0,.60371,1.42382l.32768.56314a3.86614,3.86614,0,0,1,.5244,1.94269V122.758c0,4.94157-4.92866,8.961-10.98728,8.961S71.436,127.69961,71.436,122.758a2.44912,2.44912,0,0,1,.02459-.30985l.02951-.32583,2.27652-1.95253a1.53732,1.53732,0,0,0-.88343-2.69887,1.492,1.492,0,0,0-1.117.36641l-2.05827,1.76441-.268-.11066C64.0605,117.25333,60.71919,112.78759,60.71919,107.83742Z" style="fill:#004d6c"/><path d="M135.736,84.36772a1.53776,1.53776,0,0,0-2.28635,2.057,2.73272,2.73272,0,0,1-1.205,4.43008,1.53526,1.53526,0,0,0-1.01008,1.923,1.5695,1.5695,0,0,0,1.92548,1.01315,5.81,5.81,0,0,0,2.57591-9.42329Z" style="fill:#004d6c"/><path d="M58.29082,42.33546A1.53714,1.53714,0,0,0,56.117,44.50931l1.42075,1.42136a1.574,1.574,0,0,0,2.17323,0,1.53393,1.53393,0,0,0,.00061-2.17262Z" style="fill:#004d6c"/><path d="M48.345,32.38838a1.52573,1.52573,0,0,0-1.08508-.44879h-.00061a1.53584,1.53584,0,0,0-1.08754,2.62264l4.26163,4.26532a1.57355,1.57355,0,0,0,2.17385-.00123,1.53615,1.53615,0,0,0,0-2.17385Z" style="fill:#004d6c"/><path d="M171.15023,83.49473H159.09385a1.53694,1.53694,0,1,0,0,3.07388h12.05638a1.53694,1.53694,0,0,0,0-3.07388Z" style="fill:#004d6c"/><path d="M87.10846,60.62014A1.56343,1.56343,0,0,0,88.90668,59.398a5.77787,5.77787,0,0,0-8.9204-5.88587,1.54071,1.54071,0,0,0-.40391,2.137,1.53759,1.53759,0,0,0,2.13635.40452,2.65946,2.65946,0,0,1,1.505-.46969,2.72857,2.72857,0,0,1,.517.05041,2.68445,2.68445,0,0,1,1.72568,1.14225H85.467a2.72349,2.72349,0,0,1,.418,2.04475A1.542,1.542,0,0,0,87.10846,60.62014Z" style="fill:#004d6c"/><path d="M66.63949,92.77908a1.53695,1.53695,0,0,0-1.01069-1.92425,2.73163,2.73163,0,0,1-1.20373-4.43008,1.53822,1.53822,0,0,0-2.28758-2.057A5.81041,5.81041,0,0,0,64.71524,93.791,1.56941,1.56941,0,0,0,66.63949,92.77908Z" style="fill:#004d6c"/><path d="M84.13725,125.78028a5.73456,5.73456,0,0,0,3.71386-2.41976,1.53815,1.53815,0,0,0-.40145-2.13573,1.55369,1.55369,0,0,0-1.15332-.24345,1.529,1.529,0,0,0-.98426.64429,2.687,2.687,0,0,1-3.74952.70085,1.537,1.537,0,1,0-1.749,2.528A5.719,5.719,0,0,0,84.13725,125.78028Z" style="fill:#004d6c"/><path d="M141.44362,102.3573a19.598,19.598,0,0,0,.33751-29.56459l-.0498-.04672a20.56336,20.56336,0,0,0-2.4007-1.76564l-.268-.16845.05287-.31108a13.45959,13.45959,0,0,0,.193-2.24762c0-5.758-3.65792-11.1213-9.54563-13.996l-.28218-.13771.01783-.31354c.00922-.15984.01353-.31722.01353-.47338,0-6.6359-6.3076-12.03486-14.06116-12.03486s-14.06178,5.399-14.06178,12.03486V69.64874a9.065,9.065,0,0,0,1.57567,5.12109l1.11029,1.6353a2.91158,2.91158,0,0,1-.34059,3.685l-.27911.28157a7.05964,7.05964,0,0,0-2.06626,5.01043v20.49418a6.8932,6.8932,0,0,0,1.15455,3.83006,3.78549,3.78549,0,0,1,.115,3.97023l-.32768.56314a6.93834,6.93834,0,0,0-.94184,3.48947V122.758c0,6.63712,6.30822,12.03609,14.06178,12.03609s14.06116-5.399,14.06116-12.03609v-.31231l.28649-.19181c6.43425-2.748,10.43091-8.27243,10.43091-14.4165a13.74967,13.74967,0,0,0-.52809-3.73538l-.09713-.34182.30308-.18812c.37993-.23362.7531-.482,1.11275-.75372a1.52128,1.52128,0,0,0,.33321-.36272Zm-4.04707-.92585-.03443.01844a10.63226,10.63226,0,0,1-4.69812,1.10045,1.53694,1.53694,0,1,0,0,3.07388,13.83167,13.83167,0,0,0,3.62964-.48813l.47461-.12787.10943.47953a10.58094,10.58094,0,0,1,.27665,2.34968c0,4.95018-3.34131,9.41591-8.72,11.6537l-.268.11066-2.05766-1.76318a1.54525,1.54525,0,0,0-1.11766-.36641,1.53545,1.53545,0,0,0-.88343,2.69764l2.27652,1.95253.02951.32583a2.56879,2.56879,0,0,1,.024.30985c0,4.94157-4.92866,8.961-10.98667,8.961-6.05862,0-10.98728-4.01941-10.98728-8.961v-5.02887a3.86614,3.86614,0,0,1,.5244-1.94269l.32706-.56314a6.74242,6.74242,0,0,0,.60371-1.42382l.16476-.53977.64183.32952c.23177.11927.46293.23976.707.3369a1.5579,1.5579,0,0,0,1.99433-.86438,1.53667,1.53667,0,0,0-.865-1.9931,6.68,6.68,0,0,1-3.0124-2.37673.83952.83952,0,0,0-.08177-.09468l-.19181-.29263a3.41147,3.41147,0,0,0-.17091-.29755,3.83566,3.83566,0,0,1-.64121-2.13081V85.3821a4.063,4.063,0,0,1,1.17115-2.84273l.16722-.16845.36633.30731h0l-.27411-.38477a5.16376,5.16376,0,0,1,4.63111-1.39431,1.5379,1.5379,0,0,0,.60924-3.01486,8.08636,8.08636,0,0,0-2.97552-.0332l-.49858.08607-.051-.50289a5.98286,5.98286,0,0,0-.99163-2.75912l-1.1109-1.63408a6.00825,6.00825,0,0,1-1.04328-3.39234V53.33258c0-4.94157,4.92866-8.961,10.98728-8.961,6.058,0,10.98667,4.01941,10.98667,8.961a7.37629,7.37629,0,0,1-.15554,1.43489,1.791,1.791,0,0,0-.02889.29755,7.80351,7.80351,0,0,1-2.2968,5.24035,1.5411,1.5411,0,0,0,.123,2.17139,1.58428,1.58428,0,0,0,2.17077-.12418,12.30864,12.30864,0,0,0,2.63186-4.43623l.17951-.56559.51088.30124c4.17187,2.46771,6.66233,6.43056,6.66233,10.6012,0,.26435-.02644.53363-.05349.8029l-.07008.72175-.54469-.15492a17.61778,17.61778,0,0,0-10.32763.23484l-.25144.08238-.201-.17214a7.11027,7.11027,0,0,0-9.127-.10574,1.53858,1.53858,0,0,0,.82011,2.72223,1.54575,1.54575,0,0,0,1.12258-.33813,4.00146,4.00146,0,0,1,3.04376-.884A4.10726,4.10726,0,0,1,122.72,78.4216a1.26939,1.26939,0,0,0-.11066.11189l-.11742.11066a6.99865,6.99865,0,0,0-1.83142,4.82722,7.1741,7.1741,0,0,0,3.14458,5.94735,1.57854,1.57854,0,0,0,2.1345-.40821,1.53578,1.53578,0,0,0-.4076-2.1345,4.10519,4.10519,0,0,1-1.797-3.4034,3.9247,3.9247,0,0,1,.98979-2.72469,7.255,7.255,0,0,0,2.53349-4.66246,7.12618,7.12618,0,0,0-.28956-3.01732l-.15308-.48321.49305-.118A14.43432,14.43432,0,0,1,139.654,75.044a16.4212,16.4212,0,0,1-2.25746,26.38743Z" style="fill:#004d6c"/><path d="M123.48662,104.25081a1.53192,1.53192,0,0,0,2.09885-.56314,1.53876,1.53876,0,0,0-.565-2.09885h-.00061a5.88239,5.88239,0,0,0-4.40856-.616l-.4783.12173-.09959-.48321a7.31874,7.31874,0,0,0-5.07621-5.58709,7.27345,7.27345,0,0,0-5.61045.55945,1.53771,1.53771,0,0,0,1.45641,2.7087,4.283,4.283,0,0,1,5.81271,1.77424,4.36137,4.36137,0,0,1,.02582,4.03785,1.52412,1.52412,0,0,0-.1666.589l-.02459.1205a5.94453,5.94453,0,0,0,3.97268,7.70807,1.5581,1.5581,0,0,0,1.90089-1.05619,1.541,1.541,0,0,0-1.05619-1.90212,2.85148,2.85148,0,0,1-1.754-1.42136,2.91565,2.91565,0,0,1,1.181-3.93334A2.85064,2.85064,0,0,1,123.48662,104.25081Z" style="fill:#004d6c"/><path d="M138.03776,43.75682a1.53467,1.53467,0,0,0,0,2.17262,1.57234,1.57234,0,0,0,2.17385.00123l1.42075-1.42136a1.53671,1.53671,0,0,0-2.17385-2.17262Z" style="fill:#004d6c"/><path d="M100.47431,20.731a1.53725,1.53725,0,0,0-3.0745,0V32.788a1.53725,1.53725,0,0,0,3.0745,0Z" style="fill:#004d6c"/><path d="M151.57821,32.38838a1.53987,1.53987,0,0,0-2.17323,0h-.00061l-4.26224,4.26409a1.53615,1.53615,0,0,0,0,2.17385,1.57355,1.57355,0,0,0,2.17385.00123l4.26224-4.26409A1.54136,1.54136,0,0,0,151.57821,32.38838Z" style="fill:#004d6c"/><path d="M113.7375,125.78028a5.711,5.711,0,0,0,4.32311-.92585,1.53735,1.53735,0,1,0-1.74842-2.52919,2.68351,2.68351,0,0,1-3.75014-.69962,1.53757,1.53757,0,0,0-2.539,1.7349A5.73435,5.73435,0,0,0,113.7375,125.78028Z" style="fill:#004d6c"/><path d="M114.13587,55.6343a2.65838,2.65838,0,0,1,2.01954.41928,1.53979,1.53979,0,0,0,1.15271.23976,1.522,1.522,0,0,0,.983-.64429,1.54,1.54,0,0,0-.40391-2.137A5.73444,5.73444,0,0,0,114.64983,52.51a5.88931,5.88931,0,0,0-1.09307.10328,5.8,5.8,0,0,0-4.5893,6.78467,1.53748,1.53748,0,0,0,3.0204-.57666,2.72136,2.72136,0,0,1,.42051-2.04475A2.67468,2.67468,0,0,1,114.13587,55.6343Z" style="fill:#004d6c"/><path d="M38.65548,83.49473H26.59911a1.53694,1.53694,0,0,0,0,3.07388H38.65548a1.53694,1.53694,0,1,0,0-3.07388Z" style="fill:#004d6c"/></svg>